# This file uses centimeters as units for non-parametric coordinates.

mtllib Fuente_LP.mtl
g default
v 0.665103 0.911704 0.000000
v 0.000000 2.855671 0.000000
v 0.149174 2.837676 0.000000
v 0.283745 2.785452 0.000000
v 0.390542 2.704110 0.000000
v 0.459109 2.601613 0.000000
v 0.482736 2.487995 0.000000
v 0.822663 0.911704 0.245437
v 0.782399 0.911704 0.496698
v 0.665548 0.911704 0.723364
v 0.483549 0.911704 0.903247
v 0.254217 0.911704 1.018739
v 0.000000 0.911704 1.058534
v 0.665103 0.911704 0.245437
v 0.630679 0.911704 0.458820
v 0.536488 0.911704 0.651316
v 0.389781 0.911704 0.804081
v 0.204920 0.911704 0.902162
v 0.000000 0.911704 0.935959
v 0.663135 0.511153 0.245437
v 0.630679 0.511153 0.458820
v 0.536488 0.511153 0.651316
v 0.389781 0.511153 0.804081
v 0.204920 0.511153 0.902162
v 0.000000 0.511153 0.935959
v 0.822663 0.911704 0.000000
v 0.822663 0.000000 0.000000
v 0.000000 2.704584 0.245437
v 0.112486 2.691014 0.245437
v 0.209718 2.653281 0.245437
v 0.279767 2.599928 0.245437
v 0.318197 2.542482 0.245437
v 0.360720 2.337995 0.245437
v 0.532467 2.337995 0.245437
v 0.515103 1.061704 0.245437
v 0.000000 2.654221 0.175437
v 0.100257 2.642127 0.175437
v 0.185043 2.609224 0.175437
v 0.242842 2.565201 0.175437
v 0.271226 2.522772 0.175437
v 0.320048 2.287995 0.175437
v 0.482467 2.287995 0.175437
v 0.482736 1.111704 0.175437
v 0.665103 2.383474 0.000000
v 0.665103 2.383474 0.245437
v 0.397714 2.383474 0.245437
v 0.360920 2.560410 0.245437
v 0.313353 2.631515 0.245437
v 0.232163 2.693355 0.245437
v 0.123610 2.735481 0.245437
v 0.000000 2.750392 0.245437
v 0.685103 2.427365 0.000000
v 0.685103 2.427365 0.265437
v 0.433417 2.427365 0.265437
v 0.402152 2.577712 0.265437
v 0.345766 2.661999 0.265437
v 0.253823 2.732028 0.265437
v 0.134345 2.778395 0.265437
v 0.000000 2.794601 0.265437
v 0.685103 2.383474 0.000000
v 0.685103 2.383474 0.265437
v 0.397714 2.383474 0.265437
v 0.360920 2.560410 0.265437
v 0.313353 2.631515 0.265437
v 0.232163 2.693355 0.265437
v 0.123610 2.735481 0.265437
v 0.000000 2.750392 0.265437
v 0.144521 2.819077 0.285437
v 0.000000 2.836512 0.285437
v 0.274358 2.768692 0.285437
v 0.376494 2.690898 0.285437
v 0.441240 2.594115 0.285437
v 0.467263 2.468973 0.285437
v 0.705103 2.468973 0.000000
v 0.705103 2.468973 0.285437
v 0.705103 2.427365 0.000000
v 0.705103 2.427365 0.285437
v 0.433417 2.427365 0.285437
v 0.402152 2.577712 0.285437
v 0.345766 2.661999 0.285437
v 0.253823 2.732028 0.285437
v 0.134345 2.778395 0.285437
v 0.000000 2.794601 0.285437
v 0.000000 2.855671 0.305437
v 0.149174 2.837676 0.305437
v 0.144521 2.819077 0.305437
v 0.000000 2.836512 0.305437
v 0.283745 2.785452 0.305437
v 0.274358 2.768692 0.305437
v 0.390542 2.704110 0.305437
v 0.376494 2.690898 0.305437
v 0.459109 2.601613 0.305437
v 0.441240 2.594115 0.305437
v 0.482736 2.487995 0.305437
v 0.467263 2.468973 0.305437
v 0.725103 2.468973 0.000000
v 0.725103 2.468973 0.305437
v 0.725103 2.487995 0.305437
v 0.725103 2.487995 0.000000
v 0.822663 0.000000 0.245437
v 0.782399 0.000000 0.496698
v 0.665548 0.000000 0.723364
v 0.483549 0.000000 0.903247
v 0.254217 0.000000 1.018739
v 0.000000 0.000000 1.058534
v -0.665103 0.911704 0.000000
v -0.149174 2.837676 0.000000
v -0.283745 2.785452 0.000000
v -0.390542 2.704110 0.000000
v -0.459109 2.601613 0.000000
v -0.482736 2.487995 0.000000
v -0.822663 0.911704 0.245437
v -0.782399 0.911704 0.496698
v -0.665548 0.911704 0.723364
v -0.483549 0.911704 0.903247
v -0.254217 0.911704 1.018739
v -0.665103 0.911704 0.245437
v -0.630679 0.911704 0.458820
v -0.536488 0.911704 0.651316
v -0.389781 0.911704 0.804081
v -0.204920 0.911704 0.902162
v -0.663135 0.511153 0.245437
v -0.630679 0.511153 0.458820
v -0.536488 0.511153 0.651316
v -0.389781 0.511153 0.804081
v -0.204920 0.511153 0.902162
v -0.822663 0.911704 0.000000
v -0.822663 0.000000 0.000000
v -0.112486 2.691014 0.245437
v -0.209718 2.653281 0.245437
v -0.279767 2.599928 0.245437
v -0.318197 2.542482 0.245437
v -0.360720 2.337995 0.245437
v -0.532467 2.337995 0.245437
v -0.515103 1.061704 0.245437
v -0.100257 2.642127 0.175437
v -0.185043 2.609224 0.175437
v -0.242842 2.565201 0.175437
v -0.271226 2.522772 0.175437
v -0.320048 2.287995 0.175437
v -0.482467 2.287995 0.175437
v -0.482736 1.111704 0.175437
v -0.665103 2.383474 0.000000
v -0.665103 2.383474 0.245437
v -0.397714 2.383474 0.245437
v -0.360920 2.560410 0.245437
v -0.313353 2.631515 0.245437
v -0.232163 2.693355 0.245437
v -0.123610 2.735481 0.245437
v -0.685103 2.427365 0.000000
v -0.685103 2.427365 0.265437
v -0.433417 2.427365 0.265437
v -0.402152 2.577712 0.265437
v -0.345766 2.661999 0.265437
v -0.253823 2.732028 0.265437
v -0.134345 2.778395 0.265437
v -0.685103 2.383474 0.000000
v -0.685103 2.383474 0.265437
v -0.397714 2.383474 0.265437
v -0.360920 2.560410 0.265437
v -0.313353 2.631515 0.265437
v -0.232163 2.693355 0.265437
v -0.123610 2.735481 0.265437
v -0.144521 2.819077 0.285437
v -0.274358 2.768692 0.285437
v -0.376494 2.690898 0.285437
v -0.441240 2.594115 0.285437
v -0.467263 2.468973 0.285437
v -0.705103 2.468973 0.000000
v -0.705103 2.468973 0.285437
v -0.705103 2.427365 0.000000
v -0.705103 2.427365 0.285437
v -0.433417 2.427365 0.285437
v -0.402152 2.577712 0.285437
v -0.345766 2.661999 0.285437
v -0.253823 2.732028 0.285437
v -0.134345 2.778395 0.285437
v -0.149174 2.837676 0.305437
v -0.144521 2.819077 0.305437
v -0.283745 2.785452 0.305437
v -0.274358 2.768692 0.305437
v -0.390542 2.704110 0.305437
v -0.376494 2.690898 0.305437
v -0.459109 2.601613 0.305437
v -0.441240 2.594115 0.305437
v -0.482736 2.487995 0.305437
v -0.467263 2.468973 0.305437
v -0.725103 2.468973 0.000000
v -0.725103 2.468973 0.305437
v -0.725103 2.487995 0.305437
v -0.725103 2.487995 0.000000
v -0.822663 0.000000 0.245437
v -0.782399 0.000000 0.496698
v -0.665548 0.000000 0.723364
v -0.483549 0.000000 0.903247
v -0.254217 0.000000 1.018739
v -0.067174 1.398485 0.176095
v -0.063887 1.398485 0.192662
v -0.054345 1.398485 0.211388
v -0.039484 1.398485 0.226249
v -0.020758 1.398485 0.235791
v -0.000000 1.398485 0.239079
v 0.020758 1.398485 0.235791
v 0.039484 1.398485 0.226249
v 0.054345 1.398485 0.211388
v 0.063887 1.398485 0.192662
v 0.067174 1.398485 0.176095
v -0.131041 1.421104 0.176095
v -0.124627 1.421104 0.212398
v -0.106014 1.421104 0.248928
v -0.077024 1.421104 0.277918
v -0.040493 1.421104 0.296531
v -0.000000 1.421104 0.302945
v 0.040494 1.421104 0.296531
v 0.077024 1.421104 0.277918
v 0.106014 1.421104 0.248928
v 0.124627 1.421104 0.212398
v 0.131040 1.421104 0.176095
v -0.169660 1.444770 0.176095
v -0.161356 1.444770 0.224332
v -0.137258 1.444770 0.271628
v -0.099723 1.444770 0.309162
v -0.052427 1.444770 0.333260
v -0.000000 1.444770 0.341564
v 0.052428 1.444770 0.333260
v 0.099724 1.444770 0.309162
v 0.137257 1.444770 0.271628
v 0.161356 1.444770 0.224332
v 0.169659 1.444770 0.176095
v -0.204101 1.474186 0.176095
v -0.194111 1.474186 0.234975
v -0.165121 1.474186 0.291872
v -0.119967 1.474186 0.337025
v -0.063070 1.474186 0.366016
v -0.000000 1.474186 0.376005
v 0.063071 1.474186 0.366016
v 0.119967 1.474186 0.337025
v 0.165121 1.474186 0.291872
v 0.194112 1.474186 0.234975
v 0.204101 1.474186 0.176095
v -0.233517 1.508627 0.176095
v -0.222087 1.508627 0.244065
v -0.188919 1.508627 0.309162
v -0.137258 1.508627 0.360823
v -0.072161 1.508627 0.393991
v -0.000000 1.508627 0.405421
v 0.072161 1.508627 0.393991
v 0.137257 1.508627 0.360823
v 0.188919 1.508627 0.309162
v 0.222087 1.508627 0.244065
v 0.233517 1.508627 0.176095
v -0.257182 1.547246 0.176095
v -0.244595 1.547246 0.251378
v -0.208065 1.547246 0.323072
v -0.151168 1.547246 0.379969
v -0.079473 1.547246 0.416499
v -0.000000 1.547246 0.429086
v 0.079474 1.547246 0.416499
v 0.151168 1.547246 0.379969
v 0.208065 1.547246 0.323072
v 0.244595 1.547246 0.251378
v 0.257182 1.547246 0.176095
v -0.274515 1.589091 0.176095
v -0.261079 1.589091 0.256734
v -0.222087 1.589091 0.333260
v -0.161356 1.589091 0.393991
v -0.084830 1.589091 0.432984
v -0.000000 1.589091 0.446419
v 0.084830 1.589091 0.432984
v 0.161356 1.589091 0.393991
v 0.222088 1.589091 0.333260
v 0.261080 1.589091 0.256734
v 0.274515 1.589091 0.176095
v -0.285089 1.633133 0.176095
v -0.271135 1.633133 0.260001
v -0.230641 1.633133 0.339475
v -0.167571 1.633133 0.402546
v -0.088097 1.633133 0.443039
v -0.000000 1.633133 0.456993
v 0.088097 1.633133 0.443039
v 0.167571 1.633133 0.402546
v 0.230641 1.633133 0.339475
v 0.271135 1.633133 0.260001
v 0.285088 1.633133 0.176095
v -0.000000 1.389644 0.176095
v -0.038879 1.432818 0.176094
v -0.036973 1.432843 0.183917
v -0.073024 1.441980 0.195631
v -0.076812 1.441889 0.176094
v -0.031451 1.432843 0.194755
v -0.062119 1.441980 0.217036
v -0.022850 1.432843 0.203355
v -0.045132 1.441980 0.234023
v -0.012013 1.432843 0.208877
v -0.023727 1.441980 0.244929
v -0.000000 1.432843 0.210780
v -0.000000 1.441980 0.248687
v 0.012013 1.432843 0.208877
v 0.023727 1.441980 0.244929
v 0.022850 1.432843 0.203355
v 0.045132 1.441980 0.234023
v 0.031451 1.432843 0.194754
v 0.062118 1.441980 0.217036
v 0.036972 1.432843 0.183917
v 0.073025 1.441980 0.195631
v 0.038879 1.432819 0.176094
v 0.076812 1.441889 0.176095
v -0.107260 1.456950 0.206755
v -0.112873 1.456766 0.176094
v -0.091240 1.456950 0.238194
v -0.066290 1.456950 0.263145
v -0.034851 1.456950 0.279164
v -0.000000 1.456950 0.284684
v 0.034851 1.456950 0.279164
v 0.066290 1.456950 0.263145
v 0.091241 1.456950 0.238194
v 0.107260 1.456950 0.206755
v 0.112873 1.456766 0.176094
v -0.138831 1.477374 0.217013
v -0.146178 1.477094 0.176094
v -0.118096 1.477374 0.257706
v -0.085802 1.477374 0.290001
v -0.045109 1.477374 0.310735
v -0.000000 1.477374 0.317879
v 0.045109 1.477374 0.310735
v 0.085802 1.477374 0.290001
v 0.118097 1.477374 0.257706
v 0.138831 1.477374 0.217013
v 0.146179 1.477094 0.176094
v -0.166962 1.502737 0.226153
v -0.175907 1.502383 0.176095
v -0.142026 1.502737 0.275092
v -0.103188 1.502737 0.313930
v -0.054249 1.502737 0.338866
v -0.000000 1.502737 0.347458
v 0.054249 1.502737 0.338866
v 0.103188 1.502737 0.313930
v 0.142026 1.502737 0.275092
v 0.166962 1.502737 0.226153
v 0.175907 1.502383 0.176095
v -0.190965 1.532406 0.233953
v -0.201322 1.532021 0.176094
v -0.162445 1.532406 0.289927
v -0.118023 1.532406 0.334349
v -0.062048 1.532406 0.362870
v -0.000000 1.532406 0.372697
v 0.062048 1.532406 0.362870
v 0.118023 1.532406 0.334349
v 0.162445 1.532406 0.289927
v 0.190966 1.532406 0.233953
v 0.201321 1.532022 0.176094
v -0.210259 1.565643 0.240222
v -0.221785 1.565284 0.176094
v -0.178858 1.565643 0.301852
v -0.129948 1.565643 0.350762
v -0.068317 1.565643 0.382164
v -0.000000 1.565643 0.392984
v 0.068317 1.565643 0.382164
v 0.129948 1.565643 0.350762
v 0.178858 1.565643 0.301852
v 0.210259 1.565643 0.240222
v 0.221785 1.565284 0.176094
v -0.224380 1.601631 0.244810
v -0.236784 1.601353 0.176094
v -0.190869 1.601631 0.310579
v -0.138675 1.601631 0.362774
v -0.072906 1.601631 0.396285
v -0.000000 1.601631 0.407832
v 0.072905 1.601631 0.396285
v 0.138675 1.601631 0.362774
v 0.190869 1.601631 0.310579
v 0.224380 1.601631 0.244810
v 0.236784 1.601353 0.176094
v -0.233708 1.633242 0.247841
v -0.246647 1.633023 0.176095
v -0.198804 1.633242 0.316344
v -0.144439 1.633242 0.370708
v -0.075936 1.633242 0.405612
v -0.000000 1.633242 0.417639
v 0.075936 1.633242 0.405612
v 0.144440 1.633242 0.370708
v 0.198804 1.633242 0.316344
v 0.233708 1.633242 0.247840
v 0.246647 1.633023 0.176095
v -0.000000 1.429667 0.176094
vt 0.710415 0.337697
vt 0.710415 0.375288
vt 0.659505 0.383501
vt 0.650468 0.347303
vt 0.613578 0.405973
vt 0.596389 0.375182
vt 0.577131 0.440976
vt 0.553471 0.418604
vt 0.525917 0.473319
vt 0.553730 0.485081
vt 0.545667 0.533971
vt 0.516422 0.533971
vt 0.772349 0.000032
vt 0.867915 0.000105
vt 0.867915 0.051600
vt 0.772350 0.051600
vt 0.867915 0.102730
vt 0.772350 0.102730
vt 0.867915 0.153263
vt 0.772350 0.153263
vt 0.772350 0.203191
vt 0.867915 0.203191
vt 0.867915 0.252742
vt 0.772350 0.252742
vt 0.768973 0.337697
vt 0.768973 0.375288
vt 1.000000 0.351174
vt 1.000000 0.702316
vt 0.941443 0.702316
vt 0.941443 0.351174
vt 0.546761 0.704583
vt 0.542174 0.704584
vt 0.540047 0.669891
vt 0.544622 0.669342
vt 0.533640 0.637270
vt 0.538101 0.636102
vt 0.523347 0.608361
vt 0.527565 0.606463
vt 0.509238 0.584065
vt 0.512985 0.581275
vt 0.488652 0.563584
vt 0.493624 0.561592
vt 0.495481 0.503224
vt 0.500047 0.503671
vt 0.219365 0.351162
vt 0.219365 0.000020
vt 0.251010 0.010870
vt 0.255153 0.315374
vt 0.219835 0.446727
vt 0.758638 0.797864
vt 0.779213 0.797864
vt 0.780898 0.821898
vt 0.760529 0.824830
vt 0.785546 0.843093
vt 0.765860 0.849136
vt 0.791972 0.859192
vt 0.773647 0.868647
vt 0.798574 0.869427
vt 0.782586 0.882504
vt 0.839547 0.909358
vt 0.818273 0.917283
vt 0.836256 0.947968
vt 0.814793 0.958112
vt 0.751658 0.012081
vt 0.749686 0.292719
vt 0.731218 0.304543
vt 0.731218 0.000011
vt 0.449712 0.814720
vt 0.258116 0.534118
vt 0.410833 0.534083
vt 0.868321 0.478324
vt 0.868321 0.473786
vt 0.941193 0.473786
vt 0.941193 0.478324
vt 0.868321 0.493023
vt 0.868321 0.483096
vt 0.936422 0.483096
vt 0.936422 0.493023
vt 0.480240 0.506859
vt 0.490092 0.507762
vt 0.484126 0.564834
vt 0.473061 0.569062
vt 0.505336 0.587023
vt 0.497225 0.593211
vt 0.518954 0.610359
vt 0.509711 0.614605
vt 0.528974 0.638500
vt 0.519220 0.641118
vt 0.535262 0.670472
vt 0.525275 0.671719
vt 0.537371 0.704584
vt 0.527391 0.704587
vt 0.868321 0.508266
vt 0.868321 0.497795
vt 0.931650 0.497795
vt 0.931650 0.508266
vt 0.464399 0.510336
vt 0.474839 0.511276
vt 0.468552 0.570318
vt 0.456934 0.574486
vt 0.493328 0.596234
vt 0.484649 0.602706
vt 0.505322 0.616671
vt 0.495571 0.621223
vt 0.514563 0.642401
vt 0.504306 0.645286
vt 0.520499 0.672338
vt 0.509982 0.673753
vt 0.522594 0.704589
vt 0.512071 0.704598
vt 0.840900 0.536944
vt 0.851751 0.505299
vt 0.851751 0.569094
vt 0.840900 0.577920
vt 0.893965 0.577872
vt 0.889688 0.588065
vt 0.910930 0.589221
vt 0.903393 0.597234
vt 0.925684 0.608591
vt 0.916122 0.613947
vt 0.935734 0.634491
vt 0.925125 0.637145
vt 0.939292 0.663982
vt 0.928363 0.663982
vt 0.868321 0.513038
vt 0.926879 0.513038
vt 0.452441 0.575709
vt 0.458979 0.514674
vt 0.480674 0.605626
vt 0.491210 0.623315
vt 0.499678 0.646642
vt 0.505209 0.674432
vt 0.507276 0.704603
vt 0.868321 0.292384
vt 0.868321 0.256535
vt 0.941193 0.256535
vt 0.941193 0.292384
vt 0.868321 0.326823
vt 0.941193 0.326823
vt 0.868321 0.358852
vt 0.941193 0.358852
vt 0.868321 0.388274
vt 0.941193 0.388274
vt 0.868321 0.415961
vt 0.941193 0.415961
vt 0.000000 0.608395
vt 0.217519 0.608395
vt 0.217519 0.669107
vt 0.000000 0.669107
vt 0.000000 0.547553
vt 0.217519 0.547553
vt 0.000000 0.486501
vt 0.217519 0.486501
vt 0.000000 0.425239
vt 0.217519 0.425239
vt 0.000000 0.363848
vt 0.217519 0.363848
vt 0.217519 0.727665
vt 0.000000 0.727665
vt 0.607184 0.030241
vt 0.704021 0.000025
vt 0.570737 0.065243
vt 0.653111 0.007769
vt 0.547336 0.109348
vt 0.539273 0.158239
vt 0.710415 0.730246
vt 0.650468 0.720640
vt 0.659505 0.684442
vt 0.710415 0.692655
vt 0.596389 0.692761
vt 0.613578 0.661969
vt 0.553471 0.649339
vt 0.577131 0.626967
vt 0.525917 0.594624
vt 0.553730 0.582862
vt 0.772349 0.505453
vt 0.772350 0.453885
vt 0.867915 0.453885
vt 0.867915 0.505380
vt 0.772350 0.402755
vt 0.867915 0.402755
vt 0.772350 0.352222
vt 0.867915 0.352222
vt 0.772350 0.302294
vt 0.867915 0.302294
vt 0.768973 0.692655
vt 0.768973 0.730246
vt 0.536732 0.351162
vt 0.536263 0.446727
vt 1.000000 0.351174
vt 0.941443 0.351174
vt 0.941443 0.000032
vt 1.000000 0.000032
vt 0.653111 0.308709
vt 0.704021 0.316453
vt 0.544676 0.739848
vt 0.540101 0.739291
vt 0.538129 0.773087
vt 0.533671 0.771907
vt 0.527606 0.802728
vt 0.523390 0.800829
vt 0.512994 0.827790
vt 0.509226 0.825031
vt 0.493645 0.847579
vt 0.488664 0.845624
vt 0.499844 0.905539
vt 0.495276 0.905976
vt 0.500944 0.315374
vt 0.505087 0.010870
vt 0.536732 0.000020
vt 0.760529 0.770898
vt 0.780898 0.773830
vt 0.765860 0.746592
vt 0.785546 0.752635
vt 0.773647 0.727081
vt 0.791972 0.736536
vt 0.782586 0.713224
vt 0.798574 0.726302
vt 0.818273 0.678445
vt 0.839547 0.686370
vt 0.814793 0.637617
vt 0.836256 0.647760
vt 0.708367 0.012070
vt 0.728808 -0.000000
vt 0.728808 0.304531
vt 0.710340 0.292708
vt 0.694657 0.382986
vt 0.715180 0.375263
vt 0.715180 0.621055
vt 0.694657 0.613333
vt 0.868321 0.034746
vt 0.941193 0.034746
vt 0.941193 0.039284
vt 0.868321 0.039284
vt 0.868321 0.020047
vt 0.936422 0.020047
vt 0.936422 0.029974
vt 0.868321 0.029974
vt 0.480029 0.902303
vt 0.473032 0.840089
vt 0.484095 0.844342
vt 0.489897 0.901425
vt 0.505352 0.822157
vt 0.497230 0.816014
vt 0.519000 0.798835
vt 0.509789 0.794606
vt 0.529033 0.770677
vt 0.519283 0.768058
vt 0.535294 0.738697
vt 0.525305 0.737450
vt 0.868321 0.004804
vt 0.931650 0.004804
vt 0.931650 0.015275
vt 0.868321 0.015275
vt 0.464169 0.898751
vt 0.456929 0.834570
vt 0.468525 0.838805
vt 0.474631 0.897860
vt 0.493365 0.813021
vt 0.484772 0.806457
vt 0.505387 0.792516
vt 0.495672 0.787964
vt 0.514629 0.766780
vt 0.504368 0.763918
vt 0.520527 0.736835
vt 0.510004 0.735446
vt 0.840900 0.791020
vt 0.840900 0.750044
vt 0.851751 0.758870
vt 0.851751 0.822665
vt 0.893965 0.750092
vt 0.889688 0.739899
vt 0.910930 0.738743
vt 0.903393 0.730730
vt 0.925684 0.719372
vt 0.916122 0.714017
vt 0.935734 0.693473
vt 0.925125 0.690819
vt 0.868321 0.000032
vt 0.926879 0.000032
vt 0.458759 0.894379
vt 0.452441 0.833228
vt 0.480865 0.803541
vt 0.491319 0.785867
vt 0.499765 0.762592
vt 0.505200 0.734776
vt 0.868321 0.220686
vt 0.941193 0.220686
vt 0.868321 0.186247
vt 0.941193 0.186247
vt 0.868321 0.154218
vt 0.941193 0.154218
vt 0.868321 0.124796
vt 0.941193 0.124796
vt 0.868321 0.097109
vt 0.941193 0.097109
vt 0.000000 0.119301
vt 0.000000 0.058590
vt 0.217519 0.058590
vt 0.217519 0.119301
vt 0.000000 0.180143
vt 0.217519 0.180143
vt 0.000000 0.241196
vt 0.217519 0.241196
vt 0.000000 0.302457
vt 0.217519 0.302457
vt 0.000000 0.000032
vt 0.217519 0.000032
vt 0.607184 0.286237
vt 0.570737 0.251235
vt 0.547336 0.207130
vt 0.269751 0.478102
vt 0.334454 0.446725
vt 0.358375 0.449605
vt 0.378605 0.457451
vt 0.392398 0.467951
vt 0.399172 0.478072
vt 0.276521 0.467977
vt 0.290309 0.457471
vt 0.310535 0.449616
vt 0.449584 0.534075
vt 0.219365 0.814772
vt 0.219365 0.534127
vt 0.430256 0.085418
vt 0.440446 0.087142
vt 0.438647 0.091546
vt 0.429564 0.087223
vt 0.435163 0.096027
vt 0.427899 0.089612
vt 0.430559 0.099378
vt 0.425555 0.091420
vt 0.425219 0.101392
vt 0.422756 0.092514
vt 0.419526 0.101950
vt 0.419736 0.092814
vt 0.413865 0.101019
vt 0.416733 0.092299
vt 0.408617 0.098657
vt 0.413987 0.091005
vt 0.404150 0.095008
vt 0.411728 0.089025
vt 0.400829 0.090294
vt 0.410170 0.086505
vt 0.399186 0.085809
vt 0.409566 0.084659
vt 0.450464 0.089823
vt 0.447207 0.096496
vt 0.441831 0.102773
vt 0.435081 0.107435
vt 0.427419 0.110229
vt 0.419321 0.111003
vt 0.411271 0.109717
vt 0.403745 0.106451
vt 0.397192 0.101390
vt 0.392035 0.094808
vt 0.388977 0.088014
vt 0.460141 0.093437
vt 0.455228 0.102001
vt 0.447993 0.109805
vt 0.439227 0.115598
vt 0.429414 0.119069
vt 0.419094 0.120024
vt 0.408844 0.118420
vt 0.399222 0.114360
vt 0.390729 0.108081
vt 0.383785 0.099920
vt 0.379127 0.091188
vt 0.469357 0.097878
vt 0.462746 0.107959
vt 0.453751 0.117070
vt 0.443094 0.123858
vt 0.431251 0.127930
vt 0.418833 0.129043
vt 0.406510 0.127140
vt 0.394929 0.122359
vt 0.384637 0.115003
vt 0.376025 0.105498
vt 0.369746 0.095190
vt 0.478045 0.102996
vt 0.469836 0.114268
vt 0.459212 0.124514
vt 0.446765 0.132203
vt 0.432973 0.136828
vt 0.418529 0.138080
vt 0.404211 0.135888
vt 0.390768 0.130428
vt 0.378802 0.122092
vt 0.368671 0.111421
vt 0.360882 0.099860
vt 0.486189 0.108613
vt 0.476600 0.120824
vt 0.464481 0.132089
vt 0.450316 0.140626
vt 0.434617 0.145778
vt 0.418179 0.147157
vt 0.401905 0.144675
vt 0.386656 0.138557
vt 0.373113 0.129293
vt 0.361624 0.117578
vt 0.352534 0.105030
vt 0.493839 0.114503
vt 0.483179 0.127520
vt 0.469667 0.139749
vt 0.453817 0.149123
vt 0.436215 0.154800
vt 0.417780 0.156299
vt 0.399552 0.153519
vt 0.382520 0.146735
vt 0.367461 0.136555
vt 0.354759 0.123856
vt 0.344654 0.110506
vt 0.500105 0.119457
vt 0.488754 0.133210
vt 0.474102 0.146290
vt 0.456812 0.156413
vt 0.437567 0.162554
vt 0.417403 0.164156
vt 0.397487 0.161108
vt 0.378927 0.153734
vt 0.362597 0.142746
vt 0.348944 0.129193
vt 0.338188 0.115174
vt 0.419966 0.084478
vt 0.332249 0.002169
vt 0.333665 0.005964
vt 0.318558 0.014293
vt 0.314827 0.006362
vt 0.336626 0.009973
vt 0.324770 0.021586
vt 0.340660 0.012980
vt 0.332603 0.026982
vt 0.345404 0.014784
vt 0.341498 0.030196
vt 0.350487 0.015268
vt 0.350894 0.031059
vt 0.355539 0.014401
vt 0.360227 0.029528
vt 0.360189 0.012239
vt 0.368943 0.025697
vt 0.364079 0.008919
vt 0.376513 0.019778
vt 0.366861 0.004664
vt 0.382424 0.012087
vt 0.368097 0.000788
vt 0.385861 0.003985
vt 0.309234 0.020699
vt 0.303496 0.010595
vt 0.317633 0.029760
vt 0.327820 0.036463
vt 0.339219 0.040455
vt 0.351197 0.041518
vt 0.363083 0.039604
vt 0.374230 0.034836
vt 0.384054 0.027487
vt 0.392054 0.017946
vt 0.397423 0.007607
vt 0.300506 0.027661
vt 0.292741 0.015824
vt 0.310977 0.038221
vt 0.323371 0.046065
vt 0.337130 0.050743
vt 0.351542 0.051976
vt 0.365831 0.049705
vt 0.379246 0.044090
vt 0.391156 0.035486
vt 0.401109 0.024386
vt 0.408407 0.012234
vt 0.292297 0.035051
vt 0.282627 0.021870
vt 0.304682 0.046903
vt 0.319161 0.055773
vt 0.335181 0.061077
vt 0.351940 0.062459
vt 0.368536 0.059842
vt 0.384104 0.053436
vt 0.397952 0.043695
vt 0.409678 0.031254
vt 0.418770 0.017671
vt 0.284489 0.042744
vt 0.273171 0.028520
vt 0.298624 0.055750
vt 0.315099 0.065579
vt 0.333329 0.071476
vt 0.352394 0.072991
vt 0.371250 0.070030
vt 0.388900 0.062856
vt 0.404568 0.052048
vt 0.417874 0.038414
vt 0.428512 0.023718
vt 0.276924 0.050614
vt 0.264320 0.035519
vt 0.292675 0.064704
vt 0.311104 0.075476
vt 0.331536 0.081960
vt 0.352910 0.083599
vt 0.374021 0.080283
vt 0.393724 0.072339
vt 0.411134 0.060482
vt 0.425840 0.045735
vt 0.437683 0.030154
vt 0.269388 0.058524
vt 0.255926 0.042534
vt 0.286701 0.073710
vt 0.307093 0.085468
vt 0.329764 0.092562
vt 0.353491 0.094324
vt 0.376893 0.090631
vt 0.398664 0.081879
vt 0.417783 0.068935
vt 0.433750 0.053067
vt 0.446406 0.036711
vt 0.350060 0.000031
vt 0.258869 0.181685
vt 0.267853 0.184414
vt 0.265096 0.201587
vt 0.255926 0.201764
vt 0.268163 0.162541
vt 0.275864 0.167912
vt 0.282918 0.147206
vt 0.288582 0.154694
vt 0.301689 0.137181
vt 0.304762 0.146053
vt 0.322640 0.133448
vt 0.322821 0.142835
vt 0.343719 0.136371
vt 0.340990 0.145355
vt 0.362863 0.145665
vt 0.357491 0.153366
vt 0.378198 0.160420
vt 0.370710 0.166084
vt 0.388223 0.179191
vt 0.379351 0.182264
vt 0.391937 0.199142
vt 0.382767 0.199319
vn 0.000000 1.000000 0.000000
vn 0.000000 1.000000 0.000000
vn 0.000000 1.000000 0.000000
vn 0.000000 1.000000 0.000000
vn 0.000000 1.000000 0.000000
vn 0.000000 1.000000 0.000000
vn 0.000000 1.000000 -0.000000
vn 0.000000 1.000000 -0.000000
vn 0.000000 1.000000 -0.000000
vn 0.000000 1.000000 -0.000000
vn 0.000000 1.000000 0.000000
vn 0.000000 1.000000 0.000000
vn -0.987939 0.002427 -0.154823
vn -0.987939 0.002427 -0.154823
vn -0.953947 0.001232 -0.299974
vn -0.953947 0.001232 -0.299974
vn -0.820107 0.000000 -0.572211
vn -0.820107 0.000000 -0.572211
vn -0.603335 0.000000 -0.797488
vn -0.603335 0.000000 -0.797488
vn -0.320492 0.000000 -0.947251
vn -0.320492 0.000000 -0.947251
vn 0.000000 0.000000 -1.000000
vn 0.000000 0.000000 -1.000000
vn 0.000000 1.000000 0.000000
vn 0.000000 1.000000 0.000000
vn 1.000000 0.000000 0.000000
vn 1.000000 0.000000 0.000000
vn 1.000000 0.000000 0.000000
vn 1.000000 0.000000 0.000000
vn 0.000000 0.000000 1.000000
vn 0.000000 -0.690415 0.723413
vn -0.165282 -0.668628 0.724995
vn 0.000000 0.000000 1.000000
vn -0.330605 -0.598315 0.729876
vn 0.000000 0.000000 1.000000
vn -0.487889 -0.466384 0.737869
vn 0.000000 0.000000 1.000000
vn -0.629907 -0.257637 0.732694
vn 0.000000 0.000000 1.000000
vn -0.346196 -0.757620 0.553318
vn 0.000000 0.000000 1.000000
vn 0.000000 -0.462020 0.886869
vn 0.000000 0.000000 1.000000
vn -0.000000 0.000000 1.000000
vn 0.000000 0.000000 1.000000
vn 0.000000 0.000000 1.000000
vn 0.000000 0.000000 1.000000
vn -0.000000 0.000000 1.000000
vn -0.000000 -0.811740 0.584019
vn -0.000000 -0.811740 0.584019
vn -0.192339 -0.788455 0.584247
vn -0.192339 -0.788455 0.584247
vn -0.386580 -0.712971 0.585003
vn -0.386579 -0.712972 0.585003
vn -0.576545 -0.568978 0.586396
vn -0.576546 -0.568977 0.586396
vn -0.777559 -0.228101 0.585979
vn -0.777559 -0.228100 0.585979
vn -0.530090 -0.513494 0.674780
vn -0.530090 -0.513493 0.674780
vn 0.000000 -0.813733 0.581239
vn 0.000000 -0.813733 0.581239
vn -0.861881 0.006008 0.507075
vn -0.861881 0.006008 0.507075
vn -0.861881 0.006008 0.507075
vn -0.861881 0.006008 0.507075
vn 0.000000 0.000000 1.000000
vn 0.000000 0.000000 1.000000
vn -0.000000 0.000000 1.000000
vn 0.701125 -0.713039 0.000000
vn 0.078244 0.996934 0.000000
vn 0.078244 0.996934 0.000000
vn 0.891377 -0.453263 0.000000
vn 0.907164 -0.420778 0.000000
vn 0.895314 -0.445436 0.000000
vn 0.801429 -0.598090 0.000000
vn 0.974145 -0.225923 0.000000
vn 0.000000 -0.239675 0.970853
vn 0.000000 -0.574245 0.818684
vn -0.102730 -0.224816 0.968971
vn -0.263852 -0.514116 0.816129
vn -0.430952 -0.176263 0.884993
vn -0.369840 -0.138159 0.918766
vn -0.354051 -0.338445 0.871839
vn -0.269584 -0.259125 0.927458
vn -0.232131 -0.420100 0.877286
vn -0.185418 -0.336792 0.923142
vn -0.113754 -0.460177 0.880510
vn -0.093535 -0.379419 0.920485
vn 0.000000 -0.472113 0.881538
vn 0.000000 -0.392814 0.919618
vn 0.915818 -0.401593 0.000000
vn 0.904032 -0.427464 0.000000
vn 0.815667 -0.578522 0.000000
vn 0.976797 -0.214166 0.000000
vn 0.000000 -0.228283 0.973595
vn 0.000000 -0.552932 0.833226
vn -0.106341 -0.207206 0.972500
vn -0.271902 -0.482813 0.832443
vn -0.418274 -0.156253 0.894780
vn -0.357737 -0.121670 0.925862
vn -0.341965 -0.328698 0.880351
vn -0.253539 -0.245552 0.935640
vn -0.223357 -0.405705 0.886293
vn -0.175215 -0.319776 0.931152
vn -0.109282 -0.443297 0.889688
vn -0.088621 -0.360724 0.928453
vn -0.000000 -0.454480 0.890757
vn -0.000000 -0.373618 0.927583
vn 0.000000 0.000000 1.000000
vn 0.000000 0.000000 1.000000
vn 0.000000 0.000000 1.000000
vn 0.000000 0.000000 1.000000
vn 0.000000 0.000000 1.000000
vn 0.000000 0.000000 1.000000
vn -0.000000 0.000000 1.000000
vn -0.000000 0.000000 1.000000
vn -0.000000 0.000000 1.000000
vn 0.000000 0.000000 1.000000
vn 0.000000 0.000000 1.000000
vn 0.000000 0.000000 1.000000
vn 0.000000 0.000000 1.000000
vn 0.000000 0.000000 1.000000
vn 0.000000 -1.000000 0.000000
vn 0.000000 -1.000000 0.000000
vn -0.490699 -0.871329 -0.000004
vn 0.000000 -1.000000 -0.000005
vn -0.946741 -0.321995 0.000000
vn -0.718331 -0.695702 0.000000
vn -0.480525 -0.876981 0.000000
vn -0.238582 -0.971122 0.000000
vn 0.000000 -1.000000 0.000000
vn 0.240226 0.970717 0.000000
vn 0.000000 1.000000 0.000000
vn 0.000000 1.000000 0.000000
vn 0.240226 0.970717 0.000000
vn 0.484182 0.874967 0.000000
vn 0.484182 0.874967 0.000000
vn 0.723588 0.690232 0.000000
vn 0.723588 0.690232 0.000000
vn 0.919801 0.392384 0.000000
vn 0.919801 0.392384 0.000000
vn 0.392811 0.919619 0.000000
vn 0.392811 0.919619 0.000000
vn 0.949984 0.000000 0.312300
vn 0.949984 0.000000 0.312300
vn 0.996731 0.000000 0.080798
vn 0.996731 0.000000 0.080798
vn 0.805730 0.000000 0.592284
vn 0.805730 0.000000 0.592284
vn 0.583286 0.000000 0.812267
vn 0.583286 0.000000 0.812267
vn 0.305760 0.000000 0.952109
vn 0.305760 0.000000 0.952109
vn 0.000000 0.000000 1.000000
vn 0.000000 0.000000 1.000000
vn 1.000000 0.000000 0.000000
vn 1.000000 0.000000 0.000000
vn 0.000000 1.000000 0.000000
vn 0.000000 1.000000 -0.000000
vn 0.000000 1.000000 -0.000000
vn 0.000000 1.000000 0.000000
vn 0.000000 1.000000 -0.000000
vn 0.000000 1.000000 0.000000
vn 0.000000 1.000000 -0.000000
vn 0.000000 1.000000 -0.000000
vn 0.000000 1.000000 -0.000000
vn 0.000000 1.000000 -0.000000
vn 0.000000 1.000000 0.000000
vn 0.000000 1.000000 0.000000
vn 0.000000 1.000000 0.000000
vn 0.000000 1.000000 0.000000
vn 0.000000 1.000000 0.000000
vn 0.000000 1.000000 0.000000
vn 0.987939 0.002427 -0.154823
vn 0.953947 0.001232 -0.299974
vn 0.953947 0.001232 -0.299974
vn 0.987939 0.002427 -0.154823
vn 0.820107 0.000000 -0.572211
vn 0.820107 0.000000 -0.572211
vn 0.603335 0.000000 -0.797488
vn 0.603335 0.000000 -0.797488
vn 0.320492 0.000000 -0.947251
vn 0.320492 0.000000 -0.947251
vn 0.000000 1.000000 0.000000
vn 0.000000 1.000000 0.000000
vn 0.000000 0.000000 1.000000
vn 0.000000 0.000000 1.000000
vn -1.000000 0.000000 0.000000
vn -1.000000 0.000000 0.000000
vn -1.000000 0.000000 0.000000
vn -1.000000 0.000000 0.000000
vn 0.000000 1.000000 -0.000000
vn 0.000000 1.000000 0.000000
vn 0.000000 0.000000 1.000000
vn 0.165282 -0.668629 0.724995
vn 0.000000 0.000000 1.000000
vn 0.330605 -0.598315 0.729876
vn -0.000000 0.000000 1.000000
vn 0.487890 -0.466385 0.737868
vn -0.000000 0.000000 1.000000
vn 0.629907 -0.257637 0.732694
vn -0.000000 0.000000 1.000000
vn 0.346196 -0.757620 0.553318
vn 0.000000 0.000000 1.000000
vn 0.000000 -0.462020 0.886869
vn 0.000000 0.000000 1.000000
vn 0.000000 0.000000 1.000000
vn 0.000000 0.000000 1.000000
vn 0.192339 -0.788454 0.584248
vn 0.192339 -0.788454 0.584248
vn 0.386579 -0.712971 0.585003
vn 0.386580 -0.712971 0.585003
vn 0.576546 -0.568977 0.586396
vn 0.576545 -0.568978 0.586396
vn 0.777559 -0.228100 0.585979
vn 0.777559 -0.228101 0.585979
vn 0.530091 -0.513494 0.674780
vn 0.530090 -0.513494 0.674780
vn 0.000000 -0.813734 0.581237
vn 0.000000 -0.813734 0.581237
vn 0.861881 0.006007 0.507075
vn 0.861881 0.006008 0.507075
vn 0.861881 0.006007 0.507075
vn 0.861881 0.006007 0.507075
vn 0.000000 0.813734 0.581237
vn 0.000000 0.813734 0.581237
vn 0.000000 0.813734 0.581237
vn 0.000000 0.813734 0.581237
vn -0.701125 -0.713038 0.000000
vn -0.891377 -0.453262 0.000000
vn -0.078244 0.996934 0.000000
vn -0.078244 0.996934 0.000000
vn -0.907164 -0.420777 0.000000
vn -0.974145 -0.225923 0.000000
vn -0.801430 -0.598089 0.000000
vn -0.895314 -0.445436 0.000000
vn 0.000000 -0.239675 0.970853
vn 0.263853 -0.514117 0.816129
vn 0.102730 -0.224816 0.968971
vn 0.000000 -0.574245 0.818684
vn 0.430952 -0.176262 0.884993
vn 0.369840 -0.138159 0.918766
vn 0.354051 -0.338445 0.871839
vn 0.269585 -0.259125 0.927458
vn 0.232131 -0.420100 0.877286
vn 0.185418 -0.336792 0.923142
vn 0.113753 -0.460176 0.880510
vn 0.093535 -0.379418 0.920485
vn -0.915818 -0.401594 0.000000
vn -0.976797 -0.214167 0.000000
vn -0.815667 -0.578522 0.000000
vn -0.904033 -0.427464 0.000000
vn 0.000000 -0.228283 0.973595
vn 0.271902 -0.482812 0.832443
vn 0.106342 -0.207207 0.972500
vn 0.000000 -0.552933 0.833226
vn 0.418274 -0.156253 0.894780
vn 0.357737 -0.121670 0.925862
vn 0.341965 -0.328698 0.880351
vn 0.253539 -0.245552 0.935640
vn 0.223358 -0.405706 0.886292
vn 0.175215 -0.319776 0.931152
vn 0.109283 -0.443298 0.889688
vn 0.088622 -0.360725 0.928452
vn 0.000000 0.000000 1.000000
vn -0.000000 0.000000 1.000000
vn -0.000000 0.000000 1.000000
vn 0.000000 0.000000 1.000000
vn -0.000000 0.000000 1.000000
vn -0.000000 0.000000 1.000000
vn 0.000000 0.000000 1.000000
vn 0.000000 0.000000 1.000000
vn -0.000000 0.000000 1.000000
vn -0.000000 0.000000 1.000000
vn -0.000000 0.000000 1.000000
vn -0.000000 0.000000 1.000000
vn 0.000000 -1.000000 0.000000
vn 0.000000 -1.000000 0.000000
vn 0.000000 -1.000000 0.000000
vn 0.490699 -0.871329 0.000000
vn 0.946741 -0.321995 0.000000
vn 0.718331 -0.695702 0.000000
vn 0.480525 -0.876981 0.000000
vn 0.238582 -0.971122 0.000000
vn -0.240226 0.970717 0.000000
vn -0.240226 0.970717 0.000000
vn -0.484182 0.874967 0.000000
vn -0.484182 0.874967 0.000000
vn -0.723588 0.690232 0.000000
vn -0.723588 0.690232 0.000000
vn -0.919801 0.392384 0.000000
vn -0.919801 0.392384 0.000000
vn -0.392811 0.919619 0.000000
vn -0.392811 0.919619 0.000000
vn -0.949984 0.000000 0.312300
vn -0.996731 0.000000 0.080798
vn -0.996731 0.000000 0.080798
vn -0.949984 0.000000 0.312300
vn -0.805730 0.000000 0.592284
vn -0.805730 0.000000 0.592284
vn -0.583286 0.000000 0.812267
vn -0.583286 0.000000 0.812267
vn -0.305760 0.000000 0.952109
vn -0.305760 0.000000 0.952109
vn -1.000000 0.000000 0.000000
vn -1.000000 0.000000 0.000000
vn 0.000000 1.000000 -0.000000
vn 0.000000 1.000000 0.000000
vn 0.000000 1.000000 0.000000
vn 0.000000 0.000000 1.000000
vn 0.000000 0.000000 1.000000
vn 0.000000 0.000000 1.000000
vn -0.000000 0.000000 1.000000
vn -0.000001 0.000000 1.000000
vn 0.000000 0.000000 1.000000
vn 0.000000 0.000000 1.000000
vn 0.000000 0.000000 1.000000
vn 0.000000 0.000000 1.000000
vn 0.000000 0.000000 1.000000
vn 0.000000 0.000000 1.000000
vn 0.000000 0.000000 1.000000
vn 0.205177 0.977589 -0.047145
vn 0.335405 0.939539 -0.069070
vn 0.316038 0.941715 -0.115293
vn 0.191222 0.978784 -0.073589
vn 0.270806 0.942312 -0.196754
vn 0.165448 0.978893 -0.119979
vn 0.196753 0.942313 -0.270805
vn 0.120869 0.978670 -0.166119
vn 0.103438 0.942313 -0.318350
vn 0.063767 0.978524 -0.196024
vn 0.000000 0.942313 -0.334734
vn 0.000000 0.978472 -0.206377
vn -0.103435 0.942313 -0.318352
vn -0.063763 0.978524 -0.196023
vn -0.196751 0.942312 -0.270807
vn -0.120865 0.978671 -0.166119
vn -0.270807 0.942312 -0.196753
vn -0.165451 0.978894 -0.119971
vn -0.316039 0.941715 -0.115289
vn -0.191224 0.978785 -0.073577
vn -0.335403 0.939540 -0.069064
vn -0.205173 0.977590 -0.047140
vn 0.468921 0.878526 -0.091134
vn 0.445729 0.881135 -0.157884
vn 0.381996 0.881505 -0.277538
vn 0.277537 0.881506 -0.381995
vn 0.145910 0.881506 -0.449063
vn 0.000000 0.881505 -0.472174
vn -0.145909 0.881505 -0.449065
vn -0.277536 0.881505 -0.381998
vn -0.381997 0.881505 -0.277537
vn -0.445729 0.881135 -0.157883
vn -0.468921 0.878525 -0.091137
vn 0.595235 0.795653 -0.112386
vn 0.567885 0.798897 -0.198168
vn 0.486341 0.799135 -0.353349
vn 0.353348 0.799136 -0.486340
vn 0.185766 0.799137 -0.571727
vn -0.000000 0.799137 -0.601149
vn -0.185764 0.799137 -0.571727
vn -0.353346 0.799137 -0.486341
vn -0.486341 0.799136 -0.353346
vn -0.567884 0.798897 -0.198167
vn -0.595234 0.795653 -0.112393
vn 0.708320 0.693528 -0.131533
vn 0.677428 0.697268 -0.234327
vn 0.579804 0.697405 -0.421252
vn 0.421253 0.697406 -0.579802
vn 0.221465 0.697406 -0.681599
vn 0.000000 0.697406 -0.716676
vn -0.221465 0.697406 -0.681600
vn -0.421252 0.697406 -0.579804
vn -0.579805 0.697406 -0.421250
vn -0.677429 0.697268 -0.234324
vn -0.708321 0.693527 -0.131535
vn 0.804693 0.574976 -0.147890
vn 0.771089 0.578854 -0.265236
vn 0.659660 0.578919 -0.479272
vn 0.479272 0.578918 -0.659661
vn 0.251970 0.578917 -0.775478
vn -0.000000 0.578917 -0.815387
vn -0.251968 0.578916 -0.775479
vn -0.479273 0.578916 -0.659663
vn -0.659663 0.578915 -0.479272
vn -0.771090 0.578853 -0.265234
vn -0.804693 0.574976 -0.147888
vn 0.881912 0.443069 -0.161002
vn 0.846405 0.446603 -0.290075
vn 0.723848 0.446619 -0.525905
vn 0.525905 0.446617 -0.723848
vn 0.276486 0.446617 -0.850934
vn 0.000000 0.446617 -0.894725
vn -0.276485 0.446617 -0.850934
vn -0.525906 0.446616 -0.723849
vn -0.723850 0.446615 -0.525906
vn -0.846406 0.446602 -0.290077
vn -0.881911 0.443070 -0.161005
vn 0.926300 0.337050 -0.168422
vn 0.889830 0.339992 -0.304315
vn 0.760793 0.340091 -0.552749
vn 0.552748 0.340092 -0.760794
vn 0.290598 0.340093 -0.894366
vn 0.000001 0.340093 -0.940392
vn -0.290597 0.340093 -0.894366
vn -0.552749 0.340093 -0.760793
vn -0.760793 0.340094 -0.552748
vn -0.889829 0.339994 -0.304317
vn -0.926299 0.337050 -0.168425
vn 0.940611 0.293426 -0.170743
vn 0.903888 0.296069 -0.308755
vn 0.772684 0.296317 -0.561387
vn 0.561387 0.296318 -0.772684
vn 0.295139 0.296320 -0.908343
vn 0.000001 0.296320 -0.955089
vn -0.295139 0.296321 -0.908343
vn -0.561388 0.296322 -0.772682
vn -0.772682 0.296323 -0.561387
vn -0.903887 0.296072 -0.308755
vn -0.940611 0.293425 -0.170742
vn 0.000000 0.997925 -0.064396
vn -0.293496 -0.954420 0.054239
vn -0.276195 -0.956168 0.097261
vn -0.416905 -0.897542 0.143554
vn -0.440675 -0.894265 0.078075
vn -0.236964 -0.956180 0.171955
vn -0.355737 -0.898138 0.258457
vn -0.172695 -0.955917 0.237484
vn -0.258458 -0.898137 0.355738
vn -0.090973 -0.955747 0.279771
vn -0.135880 -0.898137 0.418194
vn -0.000000 -0.955688 0.294382
vn -0.000000 -0.898137 0.439715
vn 0.090973 -0.955747 0.279771
vn 0.135880 -0.898138 0.418193
vn 0.172696 -0.955917 0.237485
vn 0.258458 -0.898138 0.355736
vn 0.236963 -0.956179 0.171960
vn 0.355737 -0.898137 0.258458
vn 0.276195 -0.956167 0.097262
vn 0.416906 -0.897542 0.143554
vn 0.293496 -0.954421 0.054232
vn 0.440676 -0.894265 0.078072
vn -0.568368 -0.799887 0.192713
vn -0.596684 -0.795893 0.102584
vn -0.485139 -0.800251 0.352475
vn -0.352473 -0.800251 0.485140
vn -0.185307 -0.800252 0.570314
vn -0.000000 -0.800252 0.599663
vn 0.185306 -0.800252 0.570314
vn 0.352475 -0.800251 0.485139
vn 0.485139 -0.800251 0.352474
vn 0.568365 -0.799889 0.192714
vn 0.596681 -0.795895 0.102584
vn -0.678250 -0.698456 0.228333
vn -0.710081 -0.693746 0.120419
vn -0.578712 -0.698789 0.420459
vn -0.420458 -0.698790 0.578712
vn -0.221048 -0.698790 0.680316
vn 0.000000 -0.698789 0.715327
vn 0.221048 -0.698789 0.680317
vn 0.420459 -0.698789 0.578712
vn 0.578711 -0.698790 0.420460
vn 0.678250 -0.698456 0.228334
vn 0.710082 -0.693745 0.120420
vn -0.772319 -0.580106 0.258844
vn -0.806710 -0.575170 0.135643
vn -0.658808 -0.580400 0.478652
vn -0.478652 -0.580401 0.658807
vn -0.251643 -0.580400 0.774475
vn 0.000000 -0.580400 0.814332
vn 0.251642 -0.580401 0.774475
vn 0.478652 -0.580402 0.658807
vn 0.658807 -0.580402 0.478651
vn 0.772319 -0.580106 0.258843
vn 0.806711 -0.575169 0.135642
vn -0.848052 -0.447753 0.283416
vn -0.884131 -0.443229 0.147851
vn -0.723291 -0.447994 0.525501
vn -0.525502 -0.447994 0.723290
vn -0.276273 -0.447994 0.850279
vn 0.000000 -0.447994 0.894036
vn 0.276273 -0.447994 0.850279
vn 0.525501 -0.447994 0.723291
vn 0.723290 -0.447995 0.525502
vn 0.848052 -0.447755 0.283413
vn 0.884131 -0.443231 0.147847
vn -0.903524 -0.304619 0.301416
vn -0.940602 -0.301157 0.156758
vn -0.770524 -0.304790 0.559818
vn -0.559818 -0.304789 0.770524
vn -0.294314 -0.304788 0.905805
vn 0.000000 -0.304787 0.952420
vn 0.294314 -0.304788 0.905805
vn 0.559819 -0.304788 0.770524
vn 0.770524 -0.304786 0.559820
vn 0.903526 -0.304616 0.301415
vn 0.940603 -0.301155 0.156754
vn -0.922508 -0.233304 0.307487
vn -0.959815 -0.230718 0.159764
vn -0.786664 -0.233445 0.571545
vn -0.571545 -0.233445 0.786664
vn -0.300479 -0.233443 0.924779
vn 0.000000 -0.233441 0.972371
vn 0.300479 -0.233443 0.924779
vn 0.571546 -0.233443 0.786664
vn 0.786664 -0.233438 0.571547
vn 0.922510 -0.233297 0.307487
vn 0.959817 -0.230713 0.159761
vn -0.000000 -0.995466 0.095123
vn -0.001396 0.999999 -0.000010
vn -0.001407 0.999999 0.000002
vn -0.000220 0.999999 -0.001370
vn -0.000220 0.999999 -0.001370
vn -0.002250 0.999996 0.001633
vn -0.002250 0.999996 0.001633
vn -0.001635 0.999996 0.002251
vn -0.001635 0.999996 0.002251
vn -0.000859 0.999996 0.002645
vn -0.000859 0.999996 0.002645
vn 0.000000 0.999996 0.002779
vn 0.000000 0.999996 0.002779
vn 0.000858 0.999996 0.002643
vn 0.000858 0.999996 0.002643
vn 0.001633 0.999996 0.002247
vn 0.001633 0.999996 0.002247
vn 0.002250 0.999996 0.001633
vn 0.002250 0.999996 0.001633
vn 0.001396 0.999999 -0.000009
vn 0.001407 0.999999 0.000003
vn 0.000220 0.999999 -0.001371
vn 0.000220 0.999999 -0.001371
s 1
g FuenteLP:pSphere5
usemtl initialShadingGroup
f 8/1/1 14/2/2 15/3/3 9/4/4
f 9/4/4 15/3/3 16/5/5 10/6/6
f 10/6/6 16/5/5 17/7/7 11/8/8
f 12/9/9 11/8/8 17/7/7 18/10/10
f 12/9/9 18/10/10 19/11/11 13/12/12
s 2
f 14/13/13 20/14/14 21/15/15 15/16/16
f 15/16/16 21/15/15 22/17/17 16/18/18
f 16/18/18 22/17/17 23/19/19 17/20/20
f 18/21/21 17/20/20 23/19/19 24/22/22
f 18/21/21 24/22/22 25/23/23 19/24/24
s 1
f 8/1/1 26/25/25 1/26/26 14/2/2
s off
f 1/27/27 44/28/28 45/29/29 14/30/30
s 3
f 84/31/31 87/32/32 86/33/33 85/34/34
f 85/34/34 86/33/33 89/35/35 88/36/36
f 88/36/36 89/35/35 91/37/37 90/38/38
f 90/38/38 91/37/37 93/39/39 92/40/40
f 92/40/40 93/39/39 95/41/41 94/42/42
f 95/41/41 97/43/43 98/44/44 94/42/42
s 4
f 14/45/45 45/46/46 34/47/47 35/48/48
f 35/48/48 20/49/49 14/45/45
s 5
f 28/50/50 36/51/51 37/52/52 29/53/53
f 29/53/53 37/52/52 38/54/54 30/55/55
f 30/55/55 38/54/54 39/56/56 31/57/57
f 31/57/57 39/56/56 40/58/58 32/59/59
f 32/59/59 40/58/58 41/60/60 33/61/61
f 41/60/60 42/62/62 34/63/63 33/61/61
s off
f 42/64/64 43/65/65 35/66/66 34/67/67
s 6
f 142/68/68 41/69/69 140/70/70
s 7
f 96/71/71 99/72/72 98/73/73 97/74/74
f 76/75/75 74/76/76 75/77/77 77/78/78
s 3
f 77/79/79 75/80/80 73/81/81 78/82/82
f 72/83/83 79/84/84 78/82/82 73/81/81
f 71/85/85 80/86/86 79/84/84 72/83/83
f 70/87/87 81/88/88 80/86/86 71/85/85
f 68/89/89 82/90/90 81/88/88 70/87/87
f 69/91/91 83/92/92 82/90/90 68/89/89
s 7
f 60/93/93 52/94/94 53/95/95 61/96/96
s 3
f 61/97/97 53/98/98 54/99/99 62/100/100
f 55/101/101 63/102/102 62/100/100 54/99/99
f 56/103/103 64/104/104 63/102/102 55/101/101
f 57/105/105 65/106/106 64/104/104 56/103/103
f 58/107/107 66/108/108 65/106/106 57/105/105
f 59/109/109 67/110/110 66/108/108 58/107/107
s 8
f 34/111/111 45/112/112 46/113/113 33/114/114
f 47/115/115 32/116/116 33/114/114 46/113/113
f 48/117/117 31/118/118 32/116/116 47/115/115
f 49/119/119 30/120/120 31/118/118 48/117/117
f 50/121/121 29/122/122 30/120/120 49/119/119
f 51/123/123 28/124/124 29/122/122 50/121/121
s 7
f 44/125/125 60/93/93 61/96/96 45/126/126
s 3
f 61/97/97 62/100/100 46/127/127 45/128/128
f 46/127/127 62/100/100 63/102/102 47/129/129
f 47/129/129 63/102/102 64/104/104 48/130/130
f 48/130/130 64/104/104 65/106/106 49/131/131
f 49/131/131 65/106/106 66/108/108 50/132/132
f 50/132/132 66/108/108 67/110/110 51/133/133
s 7
f 52/94/94 76/75/75 77/78/78 53/95/95
s 3
f 77/79/79 78/82/82 54/99/99 53/98/98
f 54/99/99 78/82/82 79/84/84 55/101/101
f 55/101/101 79/84/84 80/86/86 56/103/103
f 56/103/103 80/86/86 81/88/88 57/105/105
f 57/105/105 81/88/88 82/90/90 58/107/107
f 58/107/107 82/90/90 83/92/92 59/109/109
s 7
f 3/134/134 2/135/135 84/136/136 85/137/137
s 3
f 68/89/89 86/33/33 87/32/32 69/91/91
s 7
f 4/138/138 3/134/134 85/137/137 88/139/139
s 3
f 70/87/87 89/35/35 86/33/33 68/89/89
s 7
f 5/140/140 4/138/138 88/139/139 90/141/141
s 3
f 71/85/85 91/37/37 89/35/35 70/87/87
s 7
f 6/142/142 5/140/140 90/141/141 92/143/143
s 3
f 72/83/83 93/39/39 91/37/37 71/85/85
s 7
f 7/144/144 6/142/142 92/143/143 94/145/145
s 3
f 73/81/81 95/41/41 93/39/39 72/83/83
s 7
f 94/145/145 98/73/73 99/72/72 7/144/144
f 74/76/76 96/71/71 97/74/74 75/77/77
s 3
f 95/41/41 73/81/81 75/80/80 97/43/43
s 10
f 9/146/146 101/147/147 100/148/148 8/149/149
f 10/150/150 102/151/151 101/147/147 9/146/146
f 11/152/152 103/153/153 102/151/151 10/150/150
f 12/154/154 104/155/155 103/153/153 11/152/152
f 13/156/156 105/157/157 104/155/155 12/154/154
f 8/149/149 100/148/148 27/158/158 26/159/159
s 11
f 22/160/160 20/161/161 23/162/162
f 22/160/160 21/163/163 20/161/161
f 20/161/161 24/164/164 23/162/162
f 20/161/161 25/165/165 24/164/164
s 1
f 112/166/166 113/167/167 118/168/168 117/169/169
f 113/167/167 114/170/170 119/171/171 118/168/168
f 114/170/170 115/172/172 120/173/173 119/171/171
f 116/174/174 121/175/175 120/173/173 115/172/172
f 116/174/174 13/12/12 19/11/11 121/175/175
s 2
f 117/176/176 118/177/177 123/178/178 122/179/179
f 118/177/177 119/180/180 124/181/181 123/178/178
f 119/180/180 120/182/182 125/183/183 124/181/181
f 121/184/184 126/185/185 125/183/183 120/182/182
f 121/184/184 19/24/24 25/23/23 126/185/185
s 1
f 112/166/166 117/169/169 106/186/186 127/187/187
s 4
f 20/49/49 117/188/188 122/189/189
s off
f 106/190/190 117/191/191 144/192/192 143/193/193
s 11
f 123/194/194 20/161/161 122/195/195
s 3
f 84/31/31 178/196/196 179/197/197 87/32/32
f 178/196/196 180/198/198 181/199/199 179/197/197
f 180/198/198 182/200/200 183/201/201 181/199/199
f 182/200/200 184/202/202 185/203/203 183/201/201
f 184/202/202 186/204/204 187/205/205 185/203/203
f 187/205/205 186/204/204 190/206/206 189/207/207
s 4
f 117/188/188 135/208/208 134/209/209 144/210/210
f 135/208/208 117/188/188 20/49/49 35/48/48
s 5
f 28/50/50 129/211/211 136/212/212 36/51/51
f 129/211/211 130/213/213 137/214/214 136/212/212
f 130/213/213 131/215/215 138/216/216 137/214/214
f 131/215/215 132/217/217 139/218/218 138/216/216
f 132/217/217 133/219/219 140/220/220 139/218/218
f 140/220/220 133/219/219 134/221/221 141/222/222
s off
f 141/223/223 134/224/224 135/225/225 142/226/226
f 142/227/227 135/228/228 35/229/229 43/230/230
s 7
f 188/231/231 189/232/232 190/233/233 191/234/234
f 171/235/235 172/236/236 170/237/237 169/238/238
s 3
f 172/239/239 173/240/240 168/241/241 170/242/242
f 167/243/243 168/241/241 173/240/240 174/244/244
f 166/245/245 167/243/243 174/244/244 175/246/246
f 165/247/247 166/245/245 175/246/246 176/248/248
f 164/249/249 165/247/247 176/248/248 177/250/250
f 69/91/91 164/249/249 177/250/250 83/92/92
s 7
f 157/251/251 158/252/252 151/253/253 150/254/254
s 3
f 158/255/255 159/256/256 152/257/257 151/258/258
f 153/259/259 152/257/257 159/256/256 160/260/260
f 154/261/261 153/259/259 160/260/260 161/262/262
f 155/263/263 154/261/261 161/262/262 162/264/264
f 156/265/265 155/263/263 162/264/264 163/266/266
f 59/109/109 156/265/265 163/266/266 67/110/110
s 8
f 134/267/267 133/268/268 145/269/269 144/270/270
f 146/271/271 145/269/269 133/268/268 132/272/272
f 147/273/273 146/271/271 132/272/272 131/274/274
f 148/275/275 147/273/273 131/274/274 130/276/276
f 149/277/277 148/275/275 130/276/276 129/278/278
f 51/123/123 149/277/277 129/278/278 28/124/124
s 7
f 143/279/279 144/280/280 158/252/252 157/251/251
s 3
f 158/255/255 144/281/281 145/282/282 159/256/256
f 145/282/282 146/283/283 160/260/260 159/256/256
f 146/283/283 147/284/284 161/262/262 160/260/260
f 147/284/284 148/285/285 162/264/264 161/262/262
f 148/285/285 149/286/286 163/266/266 162/264/264
f 149/286/286 51/133/133 67/110/110 163/266/266
s 7
f 150/254/254 151/253/253 172/236/236 171/235/235
s 3
f 172/239/239 151/258/258 152/257/257 173/240/240
f 152/257/257 153/259/259 174/244/244 173/240/240
f 153/259/259 154/261/261 175/246/246 174/244/244
f 154/261/261 155/263/263 176/248/248 175/246/246
f 155/263/263 156/265/265 177/250/250 176/248/248
f 156/265/265 59/109/109 83/92/92 177/250/250
s 7
f 107/287/287 178/288/288 84/136/136 2/135/135
s 3
f 164/249/249 69/91/91 87/32/32 179/197/197
s 7
f 108/289/289 180/290/290 178/288/288 107/287/287
s 3
f 165/247/247 164/249/249 179/197/197 181/199/199
s 7
f 109/291/291 182/292/292 180/290/290 108/289/289
s 3
f 166/245/245 165/247/247 181/199/199 183/201/201
s 7
f 110/293/293 184/294/294 182/292/292 109/291/291
s 3
f 167/243/243 166/245/245 183/201/201 185/203/203
s 7
f 111/295/295 186/296/296 184/294/294 110/293/293
s 3
f 168/241/241 167/243/243 185/203/203 187/205/205
s 7
f 186/296/296 111/295/295 191/234/234 190/233/233
f 169/238/238 170/237/237 189/232/232 188/231/231
s 3
f 187/205/205 189/207/207 170/242/242 168/241/241
s 10
f 113/297/297 112/298/298 192/299/299 193/300/300
f 114/301/301 113/297/297 193/300/300 194/302/302
f 115/303/303 114/301/301 194/302/302 195/304/304
f 116/305/305 115/303/303 195/304/304 196/306/306
f 13/156/156 116/305/305 196/306/306 105/157/157
f 112/298/298 127/307/307 128/308/308 192/299/299
s 11
f 124/309/309 125/310/310 20/161/161
f 124/309/309 20/161/161 123/194/194
f 20/161/161 125/310/310 126/311/311
f 20/161/161 126/311/311 25/165/165
s 6
f 140/70/70 41/69/69 40/312/312
f 36/313/313 136/314/314 140/70/70
f 136/314/314 137/315/315 140/70/70
f 137/315/315 138/316/316 140/70/70
f 140/70/70 138/316/316 139/317/317
f 40/312/312 39/318/318 140/70/70
f 39/318/318 38/319/319 140/70/70
f 38/319/319 37/320/320 140/70/70
f 140/70/70 37/320/320 36/313/313
f 142/68/68 140/70/70 141/321/321
f 43/322/322 42/323/323 41/69/69 142/68/68
s 24
f 286/324/324 289/325/325 288/326/326 287/327/327
f 287/327/327 288/326/326 291/328/328 290/329/329
f 290/329/329 291/328/328 293/330/330 292/331/331
f 292/331/331 293/330/330 295/332/332 294/333/333
f 294/333/333 295/332/332 297/334/334 296/335/335
f 296/335/335 297/334/334 299/336/336 298/337/337
f 298/337/337 299/336/336 301/338/338 300/339/339
f 300/339/339 301/338/338 303/340/340 302/341/341
f 302/341/341 303/340/340 305/342/342 304/343/343
f 304/343/343 305/342/342 307/344/344 306/345/345
f 289/325/325 309/346/346 308/347/347 288/326/326
f 288/326/326 308/347/347 310/348/348 291/328/328
f 291/328/328 310/348/348 311/349/349 293/330/330
f 293/330/330 311/349/349 312/350/350 295/332/332
f 295/332/332 312/350/350 313/351/351 297/334/334
f 297/334/334 313/351/351 314/352/352 299/336/336
f 299/336/336 314/352/352 315/353/353 301/338/338
f 301/338/338 315/353/353 316/354/354 303/340/340
f 303/340/340 316/354/354 317/355/355 305/342/342
f 305/342/342 317/355/355 318/356/356 307/344/344
f 309/346/346 320/357/357 319/358/358 308/347/347
f 308/347/347 319/358/358 321/359/359 310/348/348
f 310/348/348 321/359/359 322/360/360 311/349/349
f 311/349/349 322/360/360 323/361/361 312/350/350
f 312/350/350 323/361/361 324/362/362 313/351/351
f 313/351/351 324/362/362 325/363/363 314/352/352
f 314/352/352 325/363/363 326/364/364 315/353/353
f 315/353/353 326/364/364 327/365/365 316/354/354
f 316/354/354 327/365/365 328/366/366 317/355/355
f 317/355/355 328/366/366 329/367/367 318/356/356
f 320/357/357 331/368/368 330/369/369 319/358/358
f 319/358/358 330/369/369 332/370/370 321/359/359
f 321/359/359 332/370/370 333/371/371 322/360/360
f 322/360/360 333/371/371 334/372/372 323/361/361
f 323/361/361 334/372/372 335/373/373 324/362/362
f 324/362/362 335/373/373 336/374/374 325/363/363
f 325/363/363 336/374/374 337/375/375 326/364/364
f 326/364/364 337/375/375 338/376/376 327/365/365
f 327/365/365 338/376/376 339/377/377 328/366/366
f 328/366/366 339/377/377 340/378/378 329/367/367
f 331/368/368 342/379/379 341/380/380 330/369/369
f 330/369/369 341/380/380 343/381/381 332/370/370
f 332/370/370 343/381/381 344/382/382 333/371/371
f 333/371/371 344/382/382 345/383/383 334/372/372
f 334/372/372 345/383/383 346/384/384 335/373/373
f 335/373/373 346/384/384 347/385/385 336/374/374
f 336/374/374 347/385/385 348/386/386 337/375/375
f 337/375/375 348/386/386 349/387/387 338/376/376
f 338/376/376 349/387/387 350/388/388 339/377/377
f 339/377/377 350/388/388 351/389/389 340/378/378
f 342/379/379 353/390/390 352/391/391 341/380/380
f 341/380/380 352/391/391 354/392/392 343/381/381
f 343/381/381 354/392/392 355/393/393 344/382/382
f 344/382/382 355/393/393 356/394/394 345/383/383
f 345/383/383 356/394/394 357/395/395 346/384/384
f 346/384/384 357/395/395 358/396/396 347/385/385
f 347/385/385 358/396/396 359/397/397 348/386/386
f 348/386/386 359/397/397 360/398/398 349/387/387
f 349/387/387 360/398/398 361/399/399 350/388/388
f 350/388/388 361/399/399 362/400/400 351/389/389
f 353/390/390 364/401/401 363/402/402 352/391/391
f 352/391/391 363/402/402 365/403/403 354/392/392
f 354/392/392 365/403/403 366/404/404 355/393/393
f 355/393/393 366/404/404 367/405/405 356/394/394
f 356/394/394 367/405/405 368/406/406 357/395/395
f 357/395/395 368/406/406 369/407/407 358/396/396
f 358/396/396 369/407/407 370/408/408 359/397/397
f 359/397/397 370/408/408 371/409/409 360/398/398
f 360/398/398 371/409/409 372/410/410 361/399/399
f 361/399/399 372/410/410 373/411/411 362/400/400
f 364/401/401 375/412/412 374/413/413 363/402/402
f 363/402/402 374/413/413 376/414/414 365/403/403
f 365/403/403 376/414/414 377/415/415 366/404/404
f 366/404/404 377/415/415 378/416/416 367/405/405
f 367/405/405 378/416/416 379/417/417 368/406/406
f 368/406/406 379/417/417 380/418/418 369/407/407
f 369/407/407 380/418/418 381/419/419 370/408/408
f 370/408/408 381/419/419 382/420/420 371/409/409
f 371/409/409 382/420/420 383/421/421 372/410/410
f 372/410/410 383/421/421 384/422/422 373/411/411
f 287/327/327 385/423/423 286/324/324
f 290/329/329 385/423/423 287/327/327
f 292/331/331 385/423/423 290/329/329
f 294/333/333 385/423/423 292/331/331
f 296/335/335 385/423/423 294/333/333
f 298/337/337 385/423/423 296/335/335
f 300/339/339 385/423/423 298/337/337
f 302/341/341 385/423/423 300/339/339
f 304/343/343 385/423/423 302/341/341
f 306/345/345 385/423/423 304/343/343
s 25
f 197/424/424 198/425/425 209/426/426 208/427/427
f 198/425/425 199/428/428 210/429/429 209/426/426
f 199/428/428 200/430/430 211/431/431 210/429/429
f 200/430/430 201/432/432 212/433/433 211/431/431
f 201/432/432 202/434/434 213/435/435 212/433/433
f 202/434/434 203/436/436 214/437/437 213/435/435
f 203/436/436 204/438/438 215/439/439 214/437/437
f 204/438/438 205/440/440 216/441/441 215/439/439
f 205/440/440 206/442/442 217/443/443 216/441/441
f 206/442/442 207/444/444 218/445/445 217/443/443
f 208/427/427 209/426/426 220/446/446 219/447/447
f 209/426/426 210/429/429 221/448/448 220/446/446
f 210/429/429 211/431/431 222/449/449 221/448/448
f 211/431/431 212/433/433 223/450/450 222/449/449
f 212/433/433 213/435/435 224/451/451 223/450/450
f 213/435/435 214/437/437 225/452/452 224/451/451
f 214/437/437 215/439/439 226/453/453 225/452/452
f 215/439/439 216/441/441 227/454/454 226/453/453
f 216/441/441 217/443/443 228/455/455 227/454/454
f 217/443/443 218/445/445 229/456/456 228/455/455
f 219/447/447 220/446/446 231/457/457 230/458/458
f 220/446/446 221/448/448 232/459/459 231/457/457
f 221/448/448 222/449/449 233/460/460 232/459/459
f 222/449/449 223/450/450 234/461/461 233/460/460
f 223/450/450 224/451/451 235/462/462 234/461/461
f 224/451/451 225/452/452 236/463/463 235/462/462
f 225/452/452 226/453/453 237/464/464 236/463/463
f 226/453/453 227/454/454 238/465/465 237/464/464
f 227/454/454 228/455/455 239/466/466 238/465/465
f 228/455/455 229/456/456 240/467/467 239/466/466
f 230/458/458 231/457/457 242/468/468 241/469/469
f 231/457/457 232/459/459 243/470/470 242/468/468
f 232/459/459 233/460/460 244/471/471 243/470/470
f 233/460/460 234/461/461 245/472/472 244/471/471
f 234/461/461 235/462/462 246/473/473 245/472/472
f 235/462/462 236/463/463 247/474/474 246/473/473
f 236/463/463 237/464/464 248/475/475 247/474/474
f 237/464/464 238/465/465 249/476/476 248/475/475
f 238/465/465 239/466/466 250/477/477 249/476/476
f 239/466/466 240/467/467 251/478/478 250/477/477
f 241/469/469 242/468/468 253/479/479 252/480/480
f 242/468/468 243/470/470 254/481/481 253/479/479
f 243/470/470 244/471/471 255/482/482 254/481/481
f 244/471/471 245/472/472 256/483/483 255/482/482
f 245/472/472 246/473/473 257/484/484 256/483/483
f 246/473/473 247/474/474 258/485/485 257/484/484
f 247/474/474 248/475/475 259/486/486 258/485/485
f 248/475/475 249/476/476 260/487/487 259/486/486
f 249/476/476 250/477/477 261/488/488 260/487/487
f 250/477/477 251/478/478 262/489/489 261/488/488
f 252/480/480 253/479/479 264/490/490 263/491/491
f 253/479/479 254/481/481 265/492/492 264/490/490
f 254/481/481 255/482/482 266/493/493 265/492/492
f 255/482/482 256/483/483 267/494/494 266/493/493
f 256/483/483 257/484/484 268/495/495 267/494/494
f 257/484/484 258/485/485 269/496/496 268/495/495
f 258/485/485 259/486/486 270/497/497 269/496/496
f 259/486/486 260/487/487 271/498/498 270/497/497
f 260/487/487 261/488/488 272/499/499 271/498/498
f 261/488/488 262/489/489 273/500/500 272/499/499
f 263/491/491 264/490/490 275/501/501 274/502/502
f 264/490/490 265/492/492 276/503/503 275/501/501
f 265/492/492 266/493/493 277/504/504 276/503/503
f 266/493/493 267/494/494 278/505/505 277/504/504
f 267/494/494 268/495/495 279/506/506 278/505/505
f 268/495/495 269/496/496 280/507/507 279/506/506
f 269/496/496 270/497/497 281/508/508 280/507/507
f 270/497/497 271/498/498 282/509/509 281/508/508
f 271/498/498 272/499/499 283/510/510 282/509/509
f 272/499/499 273/500/500 284/511/511 283/510/510
f 198/425/425 197/424/424 285/512/512
f 199/428/428 198/425/425 285/512/512
f 200/430/430 199/428/428 285/512/512
f 201/432/432 200/430/430 285/512/512
f 202/434/434 201/432/432 285/512/512
f 203/436/436 202/434/434 285/512/512
f 204/438/438 203/436/436 285/512/512
f 205/440/440 204/438/438 285/512/512
f 206/442/442 205/440/440 285/512/512
f 207/444/444 206/442/442 285/512/512
s 26
f 275/513/513 374/514/514 375/515/515 274/516/516
f 276/517/517 376/518/518 374/514/514 275/513/513
f 277/519/519 377/520/520 376/518/518 276/517/517
f 278/521/521 378/522/522 377/520/520 277/519/519
f 279/523/523 379/524/524 378/522/522 278/521/521
f 280/525/525 380/526/526 379/524/524 279/523/523
f 281/527/527 381/528/528 380/526/526 280/525/525
f 282/529/529 382/530/530 381/528/528 281/527/527
f 283/531/531 383/532/532 382/530/530 282/529/529
f 284/533/533 384/534/534 383/532/532 283/531/531
